<svg xmlns="http://www.w3.org/2000/svg" xmlns:svg="http://www.w3.org/2000/svg" xmlns:xlink="http://www.w3.org/1999/xlink" id="svg1" width="400" height="400" version="1.1" viewBox="0 0 400 400"><defs id="defs1"><linearGradient id="linearGradient31"><stop style="stop-color:#000;stop-opacity:.58959538" id="stop32" offset="0"/><stop style="stop-color:#000;stop-opacity:1" id="stop31" offset="1"/></linearGradient><linearGradient id="linearGradient32" x1="131.213" x2="131.213" y1=".521" y2="400.214" gradientTransform="scale(1.0002802)" gradientUnits="userSpaceOnUse" xlink:href="#linearGradient31"/></defs><circle style="fill:#fff;fill-opacity:1;stroke-width:.998085" id="path14" cx="200" cy="200" r="199"/><path id="path1" style="fill:url(#linearGradient32);stroke-width:1.00028" d="M 196.79883 0.22851562 A 200 200 0 0 0 0.22851562 196.79688 C 0.2335369 199.24102 0.23300781 200.18377 0.23828125 202.72461 C 0.23883566 202.99173 0.23968107 203.08942 0.24023438 203.35547 A 200 200 0 0 0 199.77539 399.98438 C 200.01116 399.98454 199.99943 399.98226 200.23438 399.98242 A 200 200 0 0 0 399.90039 201.39453 C 399.8957 199.05888 399.90765 198.45843 399.90234 196.05469 L 399.90234 196.00586 A 200 200 0 0 0 210.05469 0.2578125 C 207.09293 0.25149635 205.82962 0.24472563 202.72461 0.23828125 C 200.18467 0.23300968 199.24215 0.23355318 196.79883 0.22851562 z M 199.55664 55.015625 C 205.41974 55.015625 211.52569 55.727602 216.44727 56.986328 C 220.68668 58.070587 226.94812 60.310868 230.36133 61.962891 C 233.77451 63.614915 239.26743 66.991541 242.56836 69.466797 C 245.86928 71.942052 250.91557 76.752046 253.7832 80.158203 C 256.65082 83.564358 260.56008 89.32288 262.46875 92.955078 C 264.37742 96.587273 266.92768 102.92777 268.13867 107.04492 C 270.08203 113.65203 270.39804 117.55518 270.81836 140.28906 L 271.29492 166.04688 L 289.44141 166.04883 C 304.74048 166.04983 308.12582 166.32429 311.01758 167.79883 C 312.90401 168.76075 315.37816 170.81978 316.51758 172.37305 C 318.57174 175.17328 318.58984 175.8676 318.58984 254.39648 C 318.58984 327.16018 318.45059 333.84615 316.88281 336.70898 C 315.94427 338.42279 313.62585 340.56154 311.73047 341.46094 C 308.60622 342.9435 298.11555 343.09584 199.40625 343.08984 C 93.263017 343.08384 90.451482 343.03409 87.576172 341.13867 C 85.953989 340.06935 83.835171 337.70794 82.867188 335.89258 C 81.231988 332.82592 81.103917 327.09809 81.066406 255.07227 C 81.028976 183.19554 81.153808 177.29928 82.775391 174.11914 C 83.737304 172.23272 85.794295 169.75661 87.345703 168.61719 C 89.920951 166.72583 91.801706 166.5207 108.9668 166.23828 L 127.76758 165.92773 L 128.31055 140.23047 C 128.78158 117.91842 129.13798 113.54439 131.01367 107.04492 C 132.20185 102.92777 134.73586 96.587273 136.64453 92.955078 C 138.5532 89.32288 142.46051 83.577586 145.32812 80.185547 C 148.19575 76.79351 153.19237 71.985897 156.43359 69.501953 C 159.67483 67.018007 165.16972 63.630108 168.64258 61.972656 C 172.11547 60.315203 178.42465 58.070587 182.66406 56.986328 C 187.58564 55.727552 193.69354 55.015625 199.55664 55.015625 z M 199.52734 79.021484 C 195.03952 79.021484 188.99059 79.736134 185.98438 80.619141 C 182.99622 81.496845 177.95283 83.588436 174.77734 85.269531 C 171.60184 86.950625 166.57992 90.691364 163.61914 93.582031 C 160.22964 96.891268 157.02587 101.37469 154.9668 105.68555 C 152.10857 111.66958 151.64046 113.81105 151.24414 122.67969 C 150.88922 130.62173 151.18017 134.06745 152.58789 138.54297 C 153.57709 141.68788 156.08107 146.88519 158.15234 150.08984 C 160.22361 153.29449 164.52902 157.96371 167.7207 160.46875 C 170.91239 162.9738 176.45646 166.23653 180.03906 167.71875 C 185.52263 169.98746 188.42387 170.48231 198.38672 170.83984 L 210.2207 171.26367 L 209.57812 173.90625 C 209.22436 175.35991 207.35831 180.14954 205.43164 184.55078 C 203.50498 188.95201 201.6856 193.117 201.38672 193.80469 C 201.08784 194.49238 201.22775 195.04992 201.69922 195.04492 C 202.1707 195.03992 205.525 192.80481 209.15234 190.08008 C 212.77966 187.35535 218.63157 182.05458 222.15625 178.29883 C 225.68092 174.54306 230.44315 169.01217 232.74023 166.00781 C 235.0373 163.00344 238.54593 157.8439 240.53516 154.54297 C 242.52438 151.24205 245.31022 144.82613 246.72852 140.28516 C 248.92289 133.25949 249.24789 130.65131 248.90234 122.78125 C 248.56035 114.99193 247.9939 112.46042 245.31641 106.74219 C 243.43047 102.71443 239.87025 97.5733 236.5625 94.105469 C 233.49581 90.890359 228.37797 86.872251 225.19141 85.173828 C 222.00484 83.475404 216.75369 81.397078 213.51953 80.554688 C 210.28538 79.712296 203.98821 79.021484 199.52734 79.021484 z"/><g id="g5" transform="matrix(2.5286683,0,0,2.5286683,-310.82948,-372.18496)"><g id="g2" fill="#8fbedb" opacity=".6" transform="translate(171.01787,219.9853)"><path id="path1-3" d="m 60.171,12.475 c -3.376,-3.619 -9.602,-1.827 -13.907,4.006 -4.306,5.831 -7.452,20.012 -7.452,20.012 0,0 14.561,-1.954 18.863,-7.781 4.305,-5.83 5.872,-12.617 2.496,-16.237 z m -56.342,0 c 3.376,-3.619 9.602,-1.827 13.907,4.006 4.306,5.831 7.452,20.012 7.452,20.012 0,0 -14.561,-1.954 -18.863,-7.781 C 2.02,22.882 0.453,16.095 3.829,12.475 Z"/></g><g id="g3" fill="#8fbedb" opacity=".6" transform="translate(171.01787,219.9853)"><path id="path2" d="m 4.146,40.283 c -1.185,-9.873 26.59,-2.58 26.59,-2.58 0,0 -23.873,25.176 -26.59,2.58 z m 55.124,0 c 1.182,-9.877 -26.591,-2.581 -26.591,-2.581 0,0 23.865,25.184 26.591,2.581 z"/></g><path id="path3" fill="#3e4347" d="m 215.01787,257.5153 c 0,26.26 -24,26.26 -24,0 0,-8.407 24,-8.407 24,0 z"/><g id="g4" fill="#ffce31" transform="translate(171.01787,219.9853)"><path id="path4" d="M 22.673,36.609 C 22.249,37.206 22,37.882 22,38.645 c 0,1.162 0.067,2.247 0.174,3.284 6.295,0.51 13.357,0.51 19.652,0 A 31.77,31.77 0 0 0 42,38.645 c 0,-0.763 -0.249,-1.438 -0.673,-2.035 -5.996,1.369 -12.658,1.369 -18.654,-10e-4 z m 0.639,10.689 c 0.693,1.98 1.63,3.571 2.709,4.795 a 43.389,43.389 0 0 1 11.959,0 c 1.079,-1.224 2.016,-2.814 2.709,-4.795 a 127.88,127.88 0 0 0 -17.377,0 z"/></g><circle id="circle4" cx="203.018" cy="241.976" r="13.847" fill="#ffce31"/><path id="path5" fill="#3e4347" d="m 199.37187,229.6573 -0.879,-0.064 c 0.135,-1.862 -1.349,-4.304 -3.766,-4.96 l 0.227,-0.87 c 2.618,0.715 4.599,3.359 4.418,5.894 z"/><path id="path6" fill="#3e4347" d="m 196.49387,222.7513 a 2.227,2.227 0 0 1 -0.223,3.119 2.167,2.167 0 0 1 -3.083,-0.226 2.23,2.23 0 0 1 0.224,-3.119 c 0.912,-0.8 2.289,-0.7 3.082,0.226 z m 10.17,6.906 0.879,-0.064 c -0.135,-1.862 1.349,-4.304 3.766,-4.96 l -0.227,-0.87 c -2.617,0.715 -4.598,3.359 -4.418,5.894 z"/><path id="path7" fill="#3e4347" d="m 209.54287,222.7513 a 2.227,2.227 0 0 0 0.223,3.119 2.167,2.167 0 0 0 3.083,-0.226 2.23,2.23 0 0 0 -0.224,-3.119 c -0.912,-0.8 -2.289,-0.7 -3.082,0.226 z"/><g id="g12" transform="translate(171.01787,219.9853)"><path id="path8" fill="#fcfcfa" d="m 44.268,22.602 c 0,3.317 -2.238,6.002 -5.002,6.002 -2.76,0 -4.998,-2.685 -4.998,-6.002 0,-3.312 2.238,-5.998 4.998,-5.998 2.763,0 5.002,2.686 5.002,5.998 z"/><path id="path9" fill="#3f3438" d="m 41.768,22.603 c 0,1.658 -1.119,3.001 -2.501,3.001 -1.378,0 -2.499,-1.343 -2.499,-3.001 0,-1.657 1.121,-2.999 2.499,-2.999 1.381,0 2.501,1.341 2.501,2.999 z"/><g id="g11"><path id="path10" fill="#fcfcfa" d="m 29.732,22.602 c 0,3.317 -2.238,6.002 -5.002,6.002 -2.76,0 -4.998,-2.685 -4.998,-6.002 0,-3.312 2.238,-5.998 4.998,-5.998 2.764,0 5.002,2.686 5.002,5.998 z"/><path id="path11" fill="#3f3438" d="m 27.232,22.603 c 0,1.658 -1.119,3.001 -2.501,3.001 -1.378,0 -2.499,-1.343 -2.499,-3.001 0,-1.657 1.121,-2.999 2.499,-2.999 1.382,0 2.501,1.341 2.501,2.999 z"/></g></g><g id="g13" transform="translate(171.01787,219.9853)"><path id="path12" fill="#3e4347" d="m 32.003,32.158 c -2.351,0 -4.492,-0.85 -4.492,-1.784 0,-0.103 0.032,-0.19 0.099,-0.264 a 0.477,0.477 0 0 1 0.353,-0.143 c 0.165,0 0.325,0.068 0.59,0.18 0.586,0.247 1.677,0.707 3.451,0.707 1.771,0 2.861,-0.46 3.446,-0.707 0.265,-0.111 0.428,-0.18 0.592,-0.18 0.223,0 0.449,0.141 0.449,0.406 -10e-4,0.936 -2.14,1.785 -4.488,1.785 z"/></g><path id="path13" fill="#3e4347" d="m 202.14587,281.9853 c 0,0 1.082,-3.729 -0.293,-6.073 -0.18,-0.306 2.836,-0.824 3.001,-0.511 1.78,3.376 -2.708,6.584 -2.708,6.584 z"/></g></svg>